<svg xmlns="http://www.w3.org/2000/svg" width="180" height="180" viewBox="0 0 180 180" fill="none">
  <!-- Background circle with gradient -->
  <defs>
    <linearGradient id="bgGradient" x1="0%" y1="0%" x2="100%" y2="100%">
      <stop offset="0%" style="stop-color:#3B82F6;stop-opacity:1" />
      <stop offset="100%" style="stop-color:#1E40AF;stop-opacity:1" />
    </linearGradient>
    <linearGradient id="capGradient" x1="0%" y1="0%" x2="100%" y2="100%">
      <stop offset="0%" style="stop-color:#F8FAFC;stop-opacity:1" />
      <stop offset="100%" style="stop-color:#E2E8F0;stop-opacity:1" />
    </linearGradient>
  </defs>
  
  <!-- Background circle -->
  <circle cx="90" cy="90" r="85" fill="url(#bgGradient)" stroke="#1E40AF" stroke-width="4"/>
  
  <!-- Graduation cap base -->
  <path d="M45 79 L135 79 L127 101 L53 101 Z" fill="url(#capGradient)" stroke="#1E40AF" stroke-width="3"/>
  
  <!-- Graduation cap top -->
  <path d="M53 79 L127 79 L119 67 L61 67 Z" fill="url(#capGradient)" stroke="#1E40AF" stroke-width="3"/>
  
  <!-- Tassel -->
  <path d="M90 67 L90 56" stroke="#1E40AF" stroke-width="4" stroke-linecap="round"/>
  <circle cx="90" cy="56" r="4" fill="#1E40AF"/>
  
  <!-- Circuit/IT elements -->
  <!-- Left circuit lines -->
  <path d="M30 56 L45 56" stroke="#F8FAFC" stroke-width="4" stroke-linecap="round"/>
  <path d="M30 67 L45 67" stroke="#F8FAFC" stroke-width="4" stroke-linecap="round"/>
  <path d="M30 90 L45 90" stroke="#F8FAFC" stroke-width="4" stroke-linecap="round"/>
  <path d="M30 101 L45 101" stroke="#F8FAFC" stroke-width="4" stroke-linecap="round"/>
  
  <!-- Right circuit lines -->
  <path d="M135 56 L150 56" stroke="#F8FAFC" stroke-width="4" stroke-linecap="round"/>
  <path d="M135 67 L150 67" stroke="#F8FAFC" stroke-width="4" stroke-linecap="round"/>
  <path d="M135 90 L150 90" stroke="#F8FAFC" stroke-width="4" stroke-linecap="round"/>
  <path d="M135 101 L150 101" stroke="#F8FAFC" stroke-width="4" stroke-linecap="round"/>
  
  <!-- Circuit nodes -->
  <circle cx="37.5" cy="56" r="3" fill="#F8FAFC"/>
  <circle cx="37.5" cy="67" r="3" fill="#F8FAFC"/>
  <circle cx="37.5" cy="90" r="3" fill="#F8FAFC"/>
  <circle cx="37.5" cy="101" r="3" fill="#F8FAFC"/>
  <circle cx="142.5" cy="56" r="3" fill="#F8FAFC"/>
  <circle cx="142.5" cy="67" r="3" fill="#F8FAFC"/>
  <circle cx="142.5" cy="90" r="3" fill="#F8FAFC"/>
  <circle cx="142.5" cy="101" r="3" fill="#F8FAFC"/>
  
  <!-- Central hub symbol -->
  <circle cx="90" cy="90" r="12" fill="#F8FAFC" stroke="#1E40AF" stroke-width="3"/>
  <path d="M84 90 L96 90 M90 84 L90 96" stroke="#1E40AF" stroke-width="4" stroke-linecap="round"/>
  
  <!-- Additional circuit connections -->
  <path d="M37.5 56 L37.5 67" stroke="#F8FAFC" stroke-width="2" stroke-linecap="round"/>
  <path d="M37.5 90 L37.5 101" stroke="#F8FAFC" stroke-width="2" stroke-linecap="round"/>
  <path d="M142.5 56 L142.5 67" stroke="#F8FAFC" stroke-width="2" stroke-linecap="round"/>
  <path d="M142.5 90 L142.5 101" stroke="#F8FAFC" stroke-width="2" stroke-linecap="round"/>
  
  <!-- Connection lines to center -->
  <path d="M53 90 L78 90" stroke="#F8FAFC" stroke-width="2" stroke-linecap="round"/>
  <path d="M102 90 L127 90" stroke="#F8FAFC" stroke-width="2" stroke-linecap="round"/>
</svg>