<svg xmlns="http://www.w3.org/2000/svg" width="32" height="32" viewBox="0 0 32 32" fill="none">
  <!-- Background circle -->
  <circle cx="16" cy="16" r="15" fill="#3B82F6" stroke="#1E40AF" stroke-width="1"/>
  
  <!-- Graduation cap base -->
  <path d="M8 14 L24 14 L22 18 L10 18 Z" fill="#F8FAFC" stroke="#1E40AF" stroke-width="1"/>
  
  <!-- Graduation cap top -->
  <path d="M10 14 L22 14 L21 12 L11 12 Z" fill="#F8FAFC" stroke="#1E40AF" stroke-width="1"/>
  
  <!-- Tassel -->
  <path d="M16 12 L16 10" stroke="#1E40AF" stroke-width="1.5" stroke-linecap="round"/>
  <circle cx="16" cy="10" r="1" fill="#1E40AF"/>
  
  <!-- Circuit elements -->
  <path d="M6 10 L8 10" stroke="#F8FAFC" stroke-width="1.5" stroke-linecap="round"/>
  <path d="M6 12 L8 12" stroke="#F8FAFC" stroke-width="1.5" stroke-linecap="round"/>
  <path d="M6 16 L8 16" stroke="#F8FAFC" stroke-width="1.5" stroke-linecap="round"/>
  <path d="M24 10 L26 10" stroke="#F8FAFC" stroke-width="1.5" stroke-linecap="round"/>
  <path d="M24 12 L26 12" stroke="#F8FAFC" stroke-width="1.5" stroke-linecap="round"/>
  <path d="M24 16 L26 16" stroke="#F8FAFC" stroke-width="1.5" stroke-linecap="round"/>
  
  <!-- Circuit nodes -->
  <circle cx="7" cy="10" r="0.8" fill="#F8FAFC"/>
  <circle cx="7" cy="12" r="0.8" fill="#F8FAFC"/>
  <circle cx="7" cy="16" r="0.8" fill="#F8FAFC"/>
  <circle cx="25" cy="10" r="0.8" fill="#F8FAFC"/>
  <circle cx="25" cy="12" r="0.8" fill="#F8FAFC"/>
  <circle cx="25" cy="16" r="0.8" fill="#F8FAFC"/>
  
  <!-- Central hub -->
  <circle cx="16" cy="16" r="1.5" fill="#F8FAFC" stroke="#1E40AF" stroke-width="0.8"/>
  <path d="M15 16 L17 16 M16 15 L16 17" stroke="#1E40AF" stroke-width="1" stroke-linecap="round"/>
</svg>