<svg xmlns="http://www.w3.org/2000/svg" width="192" height="192" viewBox="0 0 192 192" fill="none">
  <!-- Background circle with gradient -->
  <defs>
    <linearGradient id="bgGradient" x1="0%" y1="0%" x2="100%" y2="100%">
      <stop offset="0%" style="stop-color:#3B82F6;stop-opacity:1" />
      <stop offset="100%" style="stop-color:#1E40AF;stop-opacity:1" />
    </linearGradient>
    <linearGradient id="capGradient" x1="0%" y1="0%" x2="100%" y2="100%">
      <stop offset="0%" style="stop-color:#F8FAFC;stop-opacity:1" />
      <stop offset="100%" style="stop-color:#E2E8F0;stop-opacity:1" />
    </linearGradient>
  </defs>
  
  <!-- Background circle -->
  <circle cx="96" cy="96" r="90" fill="url(#bgGradient)" stroke="#1E40AF" stroke-width="4"/>
  
  <!-- Graduation cap base -->
  <path d="M48 84 L144 84 L132 108 L60 108 Z" fill="url(#capGradient)" stroke="#1E40AF" stroke-width="3"/>
  
  <!-- Graduation cap top -->
  <path d="M60 84 L132 84 L126 72 L66 72 Z" fill="url(#capGradient)" stroke="#1E40AF" stroke-width="3"/>
  
  <!-- Tassel -->
  <path d="M96 72 L96 60" stroke="#1E40AF" stroke-width="4" stroke-linecap="round"/>
  <circle cx="96" cy="60" r="4" fill="#1E40AF"/>
  
  <!-- Circuit/IT elements -->
  <!-- Left circuit lines -->
  <path d="M36 60 L48 60" stroke="#F8FAFC" stroke-width="4" stroke-linecap="round"/>
  <path d="M36 72 L48 72" stroke="#F8FAFC" stroke-width="4" stroke-linecap="round"/>
  <path d="M36 96 L48 96" stroke="#F8FAFC" stroke-width="4" stroke-linecap="round"/>
  <path d="M36 108 L48 108" stroke="#F8FAFC" stroke-width="4" stroke-linecap="round"/>
  
  <!-- Right circuit lines -->
  <path d="M144 60 L156 60" stroke="#F8FAFC" stroke-width="4" stroke-linecap="round"/>
  <path d="M144 72 L156 72" stroke="#F8FAFC" stroke-width="4" stroke-linecap="round"/>
  <path d="M144 96 L156 96" stroke="#F8FAFC" stroke-width="4" stroke-linecap="round"/>
  <path d="M144 108 L156 108" stroke="#F8FAFC" stroke-width="4" stroke-linecap="round"/>
  
  <!-- Circuit nodes -->
  <circle cx="42" cy="60" r="3" fill="#F8FAFC"/>
  <circle cx="42" cy="72" r="3" fill="#F8FAFC"/>
  <circle cx="42" cy="96" r="3" fill="#F8FAFC"/>
  <circle cx="42" cy="108" r="3" fill="#F8FAFC"/>
  <circle cx="150" cy="60" r="3" fill="#F8FAFC"/>
  <circle cx="150" cy="72" r="3" fill="#F8FAFC"/>
  <circle cx="150" cy="96" r="3" fill="#F8FAFC"/>
  <circle cx="150" cy="108" r="3" fill="#F8FAFC"/>
  
  <!-- Central hub symbol -->
  <circle cx="96" cy="96" r="12" fill="#F8FAFC" stroke="#1E40AF" stroke-width="3"/>
  <path d="M90 96 L102 96 M96 90 L96 102" stroke="#1E40AF" stroke-width="4" stroke-linecap="round"/>
  
  <!-- Additional circuit connections -->
  <path d="M42 60 L42 72" stroke="#F8FAFC" stroke-width="2" stroke-linecap="round"/>
  <path d="M42 96 L42 108" stroke="#F8FAFC" stroke-width="2" stroke-linecap="round"/>
  <path d="M150 60 L150 72" stroke="#F8FAFC" stroke-width="2" stroke-linecap="round"/>
  <path d="M150 96 L150 108" stroke="#F8FAFC" stroke-width="2" stroke-linecap="round"/>
  
  <!-- Connection lines to center -->
  <path d="M60 96 L84 96" stroke="#F8FAFC" stroke-width="2" stroke-linecap="round"/>
  <path d="M108 96 L132 96" stroke="#F8FAFC" stroke-width="2" stroke-linecap="round"/>
  
  <!-- Additional decorative elements -->
  <circle cx="96" cy="120" r="6" fill="#F8FAFC" stroke="#1E40AF" stroke-width="2"/>
  <path d="M93 120 L99 120 M96 117 L96 123" stroke="#1E40AF" stroke-width="2" stroke-linecap="round"/>
</svg>