<svg xmlns="http://www.w3.org/2000/svg" width="64" height="64" viewBox="0 0 64 64" fill="none">
  <!-- Background circle with gradient -->
  <defs>
    <linearGradient id="bgGradient" x1="0%" y1="0%" x2="100%" y2="100%">
      <stop offset="0%" style="stop-color:#3B82F6;stop-opacity:1" />
      <stop offset="100%" style="stop-color:#1E40AF;stop-opacity:1" />
    </linearGradient>
    <linearGradient id="capGradient" x1="0%" y1="0%" x2="100%" y2="100%">
      <stop offset="0%" style="stop-color:#F8FAFC;stop-opacity:1" />
      <stop offset="100%" style="stop-color:#E2E8F0;stop-opacity:1" />
    </linearGradient>
  </defs>
  
  <!-- Background circle -->
  <circle cx="32" cy="32" r="30" fill="url(#bgGradient)" stroke="#1E40AF" stroke-width="2"/>
  
  <!-- Graduation cap base -->
  <path d="M16 28 L48 28 L44 36 L20 36 Z" fill="url(#capGradient)" stroke="#1E40AF" stroke-width="1.5"/>
  
  <!-- Graduation cap top -->
  <path d="M20 28 L44 28 L42 24 L22 24 Z" fill="url(#capGradient)" stroke="#1E40AF" stroke-width="1.5"/>
  
  <!-- Tassel -->
  <path d="M32 24 L32 20" stroke="#1E40AF" stroke-width="2" stroke-linecap="round"/>
  <circle cx="32" cy="20" r="2" fill="#1E40AF"/>
  
  <!-- Circuit/IT elements -->
  <!-- Left circuit line -->
  <path d="M12 20 L16 20" stroke="#F8FAFC" stroke-width="2" stroke-linecap="round"/>
  <path d="M12 24 L16 24" stroke="#F8FAFC" stroke-width="2" stroke-linecap="round"/>
  <path d="M12 32 L16 32" stroke="#F8FAFC" stroke-width="2" stroke-linecap="round"/>
  
  <!-- Right circuit line -->
  <path d="M48 20 L52 20" stroke="#F8FAFC" stroke-width="2" stroke-linecap="round"/>
  <path d="M48 24 L52 24" stroke="#F8FAFC" stroke-width="2" stroke-linecap="round"/>
  <path d="M48 32 L52 32" stroke="#F8FAFC" stroke-width="2" stroke-linecap="round"/>
  
  <!-- Circuit nodes -->
  <circle cx="14" cy="20" r="1.5" fill="#F8FAFC"/>
  <circle cx="14" cy="24" r="1.5" fill="#F8FAFC"/>
  <circle cx="14" cy="32" r="1.5" fill="#F8FAFC"/>
  <circle cx="50" cy="20" r="1.5" fill="#F8FAFC"/>
  <circle cx="50" cy="24" r="1.5" fill="#F8FAFC"/>
  <circle cx="50" cy="32" r="1.5" fill="#F8FAFC"/>
  
  <!-- Central hub symbol -->
  <circle cx="32" cy="32" r="3" fill="#F8FAFC" stroke="#1E40AF" stroke-width="1"/>
  <path d="M29 32 L35 32 M32 29 L32 35" stroke="#1E40AF" stroke-width="1.5" stroke-linecap="round"/>
</svg>